<svg xmlns="http://www.w3.org/2000/svg" xmlns:xlink="http://www.w3.org/1999/xlink" version="1.1" id="Layer_1" x="0px" y="0px" width="100px" height="100px" viewBox="0 0 100 100" enable-background="new 0 0 100 100" xml:space="preserve">
	<path d="M79.821,80.763H20.179c-1.242,0-2.25-1.008-2.25-2.25v-27.97c0-1.242,1.008-2.25,2.25-2.25h59.643  c1.242,0,2.25,1.008,2.25,2.25v27.97C82.071,79.755,81.063,80.763,79.821,80.763z M22.429,76.263h55.143v-23.47H22.429V76.263z"/>
	<path d="M34.962,72.542c-1.242,0-2.25-1.008-2.25-2.25v-11.52c0-1.242,1.008-2.25,2.25-2.25s2.25,1.008,2.25,2.25v11.52  C37.212,71.534,36.204,72.542,34.962,72.542z"/>
	<path d="M40.558,66.782H29.366c-1.242,0-2.25-1.008-2.25-2.25s1.008-2.25,2.25-2.25h11.191c1.242,0,2.25,1.008,2.25,2.25  S41.8,66.782,40.558,66.782z"/>
	<path d="M62.354,65.364c-2.051,0-3.712,1.658-3.712,3.715c0,2.045,1.661,3.709,3.712,3.709c2.048,0,3.709-1.664,3.709-3.709  C66.063,67.022,64.402,65.364,62.354,65.364L62.354,65.364z"/>
	<path d="M69.758,56.265c-2.048,0-3.706,1.67-3.706,3.715s1.664,3.709,3.706,3.709c2.054,0,3.715-1.664,3.715-3.709  S71.812,56.265,69.758,56.265L69.758,56.265z"/>
	<path d="M47.123,52.793c-0.744,0-1.474-0.369-1.901-1.045c-0.149-0.234-3.633-5.811-1.969-11.15  c0.908-2.915,3.088-5.121,6.475-6.557c3.92-1.658,6.267-3.715,6.973-6.111c0.803-2.723-0.773-5.155-0.788-5.178  c-0.7-1.028-0.431-2.427,0.595-3.126c1.037-0.699,2.429-0.431,3.126,0.598c0.114,0.168,2.795,4.194,1.383,8.979  c-1.107,3.753-4.312,6.775-9.533,8.982c-2.142,0.907-3.431,2.136-3.935,3.753c-1.034,3.315,1.447,7.358,1.471,7.399  c0.668,1.049,0.357,2.439-0.691,3.106C47.952,52.68,47.536,52.793,47.123,52.793z"/>
</svg>
